# xmcd
#
# Track frame offsets:
#	182
#	2687
#	27937
#	49870
#	70575
#	87185
#	96040
#	113727
#	138437
#	162925
#
# Disc length: 2418 seconds
#
# Revision: 0
# Processed by: cddbd v1.5PL3 Copyright (c) Steve Scherf et al.
# Submitted via: dBpowerAMP V4.0
#
DISCID=7409700a
DTITLE=Christion - Songs Fron Ghetto Cyrano
DYEAR=1900
DGENRE=R&B
TTITLE0=Intro
TTITLE1=The Ghetto
TTITLE2=Full Of Smoke
TTITLE3=Anyting Goes
TTITLE4=Midnigt X-ta-Cy
TTITLE5=Where I'm From (Interlude)
TTITLE6=Pull It
TTITLE7=Bring Back Your Love
TTITLE8=Come To Me (Live)
TTITLE9=Face Like Yours
EXTD=Christion
EXTT0=
EXTT1=
EXTT2=
EXTT3=
EXTT4=
EXTT5=
EXTT6=
EXTT7=
EXTT8=
EXTT9=
PLAYORDER=
